<?xml version="1.0" encoding="utf-8"?>
<!-- Generator: Adobe Illustrator 21.0.0, SVG Export Plug-In . SVG Version: 6.00 Build 0)  -->
<svg version="1.1" id="Capa_1" xmlns="http://www.w3.org/2000/svg" xmlns:xlink="http://www.w3.org/1999/xlink" x="0px" y="0px"
	 viewBox="0 0 48 80" style="enable-background:new 0 0 48 80;" xml:space="preserve">
<style type="text/css">
	.st0{fill:#52457C;}
</style>
<path class="st0" d="M24,0.9C11,0.9,0.5,11.8,0.5,25.3c0,2.1,0.1,2.9,0.1,2.9c0.3,1.8,0.8,4,1.1,4.9C2,34,2.5,35.1,2.7,35.6
	c0.2,0.5,1.5,3.1,2.3,4.7l17.7,37.5c0.8,1.6,2,1.6,2.8,0L43,40.4c0.8-1.6,1.6-3.3,1.8-3.8c0.2-0.5,1.1-2.6,1.4-3.5
	c0.3-0.9,0.8-3.1,1.1-4.9c0,0,0.1-0.8,0.1-2.9C47.5,11.8,37,0.9,24,0.9z"/>
</svg>
